<?xml version="1.0" encoding="UTF-8" standalone="no"?>
<svg
   width="40"
   height="40"
   viewBox="0 0 40 40"
   fill="none"
   version="1.1"
   id="svg3"
   sodipodi:docname="rss.svg"
   xml:space="preserve"
   inkscape:version="1.3 (0e150ed6c4, 2023-07-21)"
   xmlns:inkscape="http://www.inkscape.org/namespaces/inkscape"
   xmlns:sodipodi="http://sodipodi.sourceforge.net/DTD/sodipodi-0.dtd"
   xmlns="http://www.w3.org/2000/svg"
   xmlns:svg="http://www.w3.org/2000/svg"><sodipodi:namedview
     id="namedview3"
     pagecolor="#505050"
     bordercolor="#ffffff"
     borderopacity="1"
     inkscape:showpageshadow="0"
     inkscape:pageopacity="0"
     inkscape:pagecheckerboard="1"
     inkscape:deskcolor="#d1d1d1"
     inkscape:zoom="15.35"
     inkscape:cx="18.403909"
     inkscape:cy="20.456026"
     inkscape:window-width="1600"
     inkscape:window-height="828"
     inkscape:window-x="0"
     inkscape:window-y="0"
     inkscape:window-maximized="1"
     inkscape:current-layer="svg3" /><rect
     width="40"
     height="40"
     rx="8"
     fill="url(#paint0_linear_1_68)"
     id="rect1" /><rect
     x="1.05"
     y="1.05"
     width="37.9"
     height="37.9"
     rx="6.95"
     stroke="white"
     stroke-opacity="0.15"
     stroke-width="2.1"
     id="rect2" /><defs
     id="defs3"><linearGradient
       id="paint0_linear_1_68"
       x1="20"
       y1="0"
       x2="20"
       y2="40"
       gradientUnits="userSpaceOnUse"><stop
         stop-color="#1F2226"
         id="stop2" /><stop
         offset="1"
         stop-color="#1F2226"
         id="stop3" /></linearGradient></defs><g
     id="g3"
     transform="matrix(0.08783032,0,0,0.08783032,3.6451365,3.644744)"><path
       d="M 11.02,5.209 C 9.656,5.941 7.965,7.656 7.263,9.02 6.29,10.911 6.047,19.036 6.243,43.224 c 0.252,31.11 0.299,31.765 2.441,33.905 1.935,1.934 4.034,2.329 18.425,3.47 8.933,0.707 21.001,2.03 26.817,2.938 5.816,0.909 16.874,3.229 24.574,5.157 7.7,1.927 18.95,5.303 25,7.501 6.05,2.199 17.436,7.086 25.302,10.861 7.865,3.774 18.665,9.458 24,12.631 5.334,3.173 15.998,10.488 23.698,16.256 8.85,6.629 19.351,15.834 28.548,25.022 8.001,7.994 17.6,18.36 21.33,23.035 3.731,4.675 10.544,14.125 15.14,21 4.596,6.875 11.288,18.125 14.87,25 3.582,6.875 8.966,18.615 11.965,26.089 2.999,7.474 6.863,18.498 8.588,24.5 1.724,6.001 4.221,16.311 5.549,22.911 1.327,6.6 2.905,15.825 3.506,20.5 0.601,4.675 1.439,14.478 1.861,21.785 0.683,11.809 1.015,13.531 2.984,15.5 2.197,2.197 2.482,2.215 35.159,2.215 32.869,0 32.95,-0.005 35.203,-2.259 1.86,-1.86 2.327,-3.611 2.646,-9.915 0.212,-4.211 -0.148,-13.995 -0.801,-21.741 -0.653,-7.747 -2.266,-20.488 -3.584,-28.313 -1.318,-7.825 -3.962,-20.425 -5.875,-28 -1.914,-7.575 -5.775,-20.488 -8.582,-28.697 -2.806,-8.209 -7.132,-19.684 -9.614,-25.5 -2.481,-5.816 -7.553,-16.425 -11.272,-23.575 -3.719,-7.15 -9.277,-17.05 -12.351,-22 -3.074,-4.95 -9.118,-14.031 -13.43,-20.179 -4.312,-6.149 -11.778,-15.907 -16.592,-21.686 -4.814,-5.778 -12.425,-14.386 -16.913,-19.128 -4.489,-4.742 -12.925,-12.802 -18.748,-17.911 -5.823,-5.109 -15.024,-12.75 -20.447,-16.979 -5.423,-4.23 -14.873,-10.991 -21,-15.026 C 198.513,58.556 188.171,52.238 181.657,48.55 175.144,44.862 164.565,39.47 158.15,36.568 151.735,33.666 140.999,29.204 134.292,26.652 127.586,24.1 115.961,20.218 108.461,18.024 100.96,15.831 88.225,12.705 80.161,11.077 72.098,9.449 60.1,7.438 53.5,6.609 46.9,5.779 35.2,4.826 27.5,4.489 16.802,4.022 12.915,4.192 11.02,5.209 m -0.612,4.17 C 10.168,10.005 10.091,25.138 10.236,43.008 10.5,75.5 10.5,75.5 25,76.129 c 7.975,0.345 18.1,1.154 22.5,1.796 4.4,0.642 11.6,1.851 16,2.686 4.4,0.835 13.175,2.872 19.5,4.526 6.325,1.654 17.575,5.275 25,8.045 7.425,2.771 20.475,8.565 29,12.875 8.525,4.31 20.9,11.43 27.5,15.823 6.6,4.392 16.275,11.399 21.5,15.57 5.225,4.171 14.846,12.864 21.379,19.317 6.534,6.453 15.467,16.008 19.853,21.233 4.385,5.225 12.175,15.8 17.31,23.5 5.136,7.7 12.267,19.625 15.848,26.5 3.581,6.875 8.947,18.575 11.925,26 2.979,7.425 7.055,19.125 9.059,26 2.004,6.875 4.736,18.125 6.07,25 1.334,6.875 2.879,16.775 3.435,22 0.555,5.225 1.321,14.788 1.701,21.25 0.692,11.75 0.692,11.75 34.056,11.75 33.364,0 33.364,0 33.36,-5.25 -0.002,-2.887 -0.47,-11.55 -1.038,-19.25 -0.569,-7.7 -1.88,-19.856 -2.914,-27.013 -1.034,-7.156 -3.088,-18.406 -4.564,-25 -1.477,-6.593 -4.189,-17.162 -6.026,-23.487 -1.838,-6.325 -5.64,-17.575 -8.45,-25 -2.81,-7.425 -8.191,-19.881 -11.957,-27.68 -3.767,-7.8 -9.442,-18.6 -12.611,-24 C 309.267,177.919 303.659,169 299.975,163.5 296.291,158 289.288,148.325 284.412,142 279.536,135.675 267.211,122.146 257.023,111.935 246.836,101.724 234.225,89.995 229,85.87 223.775,81.746 215,75.196 209.5,71.315 204,67.435 195,61.561 189.5,58.261 184,54.962 173.2,49.108 165.5,45.252 157.8,41.396 145.2,35.757 137.5,32.72 129.8,29.684 119.777,26.033 115.226,24.608 110.675,23.183 101.479,20.636 94.79,18.947 88.102,17.258 76.3,14.808 68.565,13.502 60.829,12.197 48.875,10.661 42,10.089 35.125,9.518 25.302,8.869 20.172,8.646 13.789,8.37 10.707,8.601 10.408,9.379 m 0.612,114.905 c -1.364,0.691 -3.045,2.372 -3.736,3.736 -0.924,1.827 -1.258,10.584 -1.269,33.28 -0.012,25.16 0.254,31.32 1.455,33.641 0.822,1.59 2.87,3.331 4.649,3.951 1.749,0.609 5.33,1.108 7.958,1.108 2.628,0 8.298,0.475 12.601,1.056 4.302,0.58 12.322,2.225 17.822,3.655 5.5,1.43 13.825,4.135 18.5,6.012 4.675,1.876 12.108,5.373 16.518,7.77 4.409,2.397 11.894,7.116 16.632,10.486 4.738,3.37 14.203,11.841 21.035,18.824 7.553,7.721 14.885,16.402 18.71,22.15 3.459,5.199 8.31,13.477 10.78,18.395 2.47,4.918 6.227,14.164 8.349,20.547 2.122,6.383 4.551,15.43 5.398,20.105 0.847,4.675 1.934,13.373 2.415,19.328 0.734,9.079 1.226,11.179 3.047,13 2.141,2.141 2.637,2.172 35.116,2.172 32.66,0 32.964,-0.019 35.156,-2.211 1.651,-1.651 2.321,-3.74 2.648,-8.249 0.24,-3.321 -0.086,-11.101 -0.725,-17.289 -0.639,-6.188 -2.304,-16.876 -3.701,-23.751 -1.397,-6.875 -4.773,-19.25 -7.501,-27.5 -2.728,-8.25 -8.066,-21.3 -11.862,-29 -3.797,-7.7 -10,-18.725 -13.784,-24.5 -3.785,-5.775 -9.755,-14.1 -13.266,-18.5 -3.512,-4.4 -9.103,-10.925 -12.425,-14.5 -3.322,-3.575 -9.415,-9.566 -13.54,-13.314 -4.125,-3.748 -11.688,-9.987 -16.807,-13.864 -5.119,-3.876 -15.188,-10.579 -22.375,-14.894 -7.188,-4.316 -18.037,-9.944 -24.111,-12.507 -6.073,-2.564 -14.904,-5.972 -19.625,-7.575 -4.72,-1.602 -12.857,-3.996 -18.082,-5.32 -5.225,-1.323 -13.55,-3.094 -18.5,-3.936 -4.95,-0.841 -14.803,-1.993 -21.895,-2.56 -7.093,-0.566 -12.943,-1.023 -13,-1.015 -0.058,0.008 -1.221,0.579 -2.585,1.269 M 10,161.348 c 0,33.348 0,33.348 10.376,33.983 5.707,0.349 15.022,1.535 20.7,2.636 5.678,1.101 14.621,3.411 19.874,5.135 5.252,1.724 14.05,5.287 19.55,7.919 5.5,2.632 13.6,7.143 18,10.024 4.4,2.881 11.15,7.815 15,10.964 3.85,3.15 10.457,9.349 14.682,13.777 4.226,4.428 10.104,11.35 13.063,15.382 2.959,4.033 6.99,10.032 8.957,13.332 1.968,3.3 5.237,9.32 7.265,13.379 2.028,4.058 5.424,12.608 7.545,19 2.121,6.391 4.561,15.086 5.421,19.321 0.86,4.235 2.083,13.348 2.718,20.25 1.155,12.55 1.155,12.55 34.644,12.55 33.49,0 33.49,0 32.794,-11.25 -0.382,-6.187 -1.35,-15.658 -2.15,-21.046 -0.8,-5.388 -2.369,-13.938 -3.485,-19 -1.117,-5.062 -4.072,-15.279 -6.566,-22.704 -2.495,-7.425 -7.629,-19.827 -11.41,-27.56 -3.781,-7.733 -10.164,-18.983 -14.184,-25 -4.02,-6.017 -9.824,-14.091 -12.896,-17.942 -3.073,-3.851 -9.118,-10.755 -13.434,-15.343 -4.316,-4.588 -12.149,-11.94 -17.406,-16.339 -5.257,-4.398 -12.933,-10.374 -17.058,-13.279 -4.125,-2.905 -12.357,-8.072 -18.293,-11.482 -5.936,-3.41 -15.854,-8.371 -22.039,-11.025 -6.185,-2.654 -16.281,-6.42 -22.435,-8.368 -6.154,-1.949 -15.393,-4.454 -20.532,-5.568 -5.138,-1.113 -14.922,-2.715 -21.742,-3.559 C 30.14,128.691 21.284,128 17.28,128 10,128 10,128 10,161.348 m 34.618,101.764 c -2.134,0.501 -6.859,2.329 -10.5,4.061 -4.454,2.12 -8.747,5.304 -13.131,9.738 -3.583,3.624 -7.73,8.873 -9.217,11.664 -1.488,2.791 -3.394,7.723 -4.237,10.96 C 6.69,302.772 6,308.606 6,312.5 c 0,3.894 0.689,9.725 1.531,12.958 0.842,3.234 2.912,8.47 4.6,11.636 1.688,3.167 5.505,8.214 8.483,11.215 2.978,3.002 8.559,7.111 12.402,9.13 4.339,2.28 10.032,4.246 15.024,5.187 6.407,1.209 9.443,1.298 14.976,0.44 3.816,-0.593 9.421,-2.006 12.454,-3.141 3.034,-1.135 8.197,-4.079 11.475,-6.543 3.277,-2.463 7.974,-7.16 10.437,-10.437 2.464,-3.278 5.408,-8.441 6.543,-11.475 1.135,-3.033 2.548,-8.638 3.141,-12.454 0.858,-5.533 0.769,-8.569 -0.44,-14.976 -0.941,-4.992 -2.907,-10.685 -5.187,-15.024 -2.019,-3.843 -6.128,-9.424 -9.13,-12.402 -3.001,-2.978 -8.048,-6.795 -11.215,-8.483 -3.166,-1.688 -8.402,-3.758 -11.636,-4.6 -3.233,-0.842 -9.271,-1.486 -13.418,-1.431 -4.147,0.056 -9.287,0.511 -11.422,1.012 m 0.301,4.721 c -3.62,0.945 -9.182,3.282 -12.36,5.193 -3.178,1.911 -7.73,5.633 -10.115,8.272 -2.385,2.639 -5.667,7.461 -7.293,10.716 -1.626,3.254 -3.527,9.106 -4.224,13.004 -0.967,5.414 -1.006,8.767 -0.164,14.205 0.669,4.322 2.504,9.957 4.672,14.342 2.471,5 5.373,8.894 9.425,12.645 3.221,2.982 8.282,6.563 11.248,7.959 2.966,1.396 7.817,3.114 10.782,3.818 3.277,0.778 8.373,1.069 13,0.743 4.185,-0.295 10.193,-1.511 13.35,-2.702 3.158,-1.19 8.108,-3.934 11,-6.097 2.893,-2.163 7.138,-6.401 9.433,-9.417 2.295,-3.017 5.151,-8.079 6.346,-11.25 1.196,-3.17 2.416,-9.189 2.711,-13.374 0.322,-4.569 0.033,-9.764 -0.724,-13 -0.693,-2.965 -2.37,-7.772 -3.726,-10.684 -1.357,-2.911 -4.947,-7.973 -7.979,-11.247 -3.85,-4.159 -7.666,-7.01 -12.656,-9.458 -3.93,-1.927 -9.569,-3.953 -12.531,-4.502 -2.963,-0.55 -7.238,-0.973 -9.5,-0.941 -2.263,0.031 -7.076,0.83 -10.695,1.775"
       stroke="none"
       fill="#b3b3b3"
       fill-rule="evenodd"
       id="path1" /><path
       d="M 10.408,9.379 C 10.168,10.005 10.091,25.138 10.236,43.008 10.5,75.5 10.5,75.5 25,76.129 c 7.975,0.345 18.1,1.154 22.5,1.796 4.4,0.642 11.6,1.851 16,2.686 4.4,0.835 13.175,2.872 19.5,4.526 6.325,1.654 17.575,5.275 25,8.045 7.425,2.771 20.475,8.565 29,12.875 8.525,4.31 20.9,11.43 27.5,15.823 6.6,4.392 16.275,11.399 21.5,15.57 5.225,4.171 14.846,12.864 21.379,19.317 6.534,6.453 15.467,16.008 19.853,21.233 4.385,5.225 12.175,15.8 17.31,23.5 5.136,7.7 12.267,19.625 15.848,26.5 3.581,6.875 8.947,18.575 11.925,26 2.979,7.425 7.055,19.125 9.059,26 2.004,6.875 4.736,18.125 6.07,25 1.334,6.875 2.879,16.775 3.435,22 0.555,5.225 1.321,14.788 1.701,21.25 0.692,11.75 0.692,11.75 34.056,11.75 33.364,0 33.364,0 33.36,-5.25 -0.002,-2.887 -0.47,-11.55 -1.038,-19.25 -0.569,-7.7 -1.88,-19.856 -2.914,-27.013 -1.034,-7.156 -3.088,-18.406 -4.564,-25 -1.477,-6.593 -4.189,-17.162 -6.026,-23.487 -1.838,-6.325 -5.64,-17.575 -8.45,-25 -2.81,-7.425 -8.191,-19.881 -11.957,-27.68 -3.767,-7.8 -9.442,-18.6 -12.611,-24 C 309.267,177.919 303.659,169 299.975,163.5 296.291,158 289.288,148.325 284.412,142 279.536,135.675 267.211,122.146 257.023,111.935 246.836,101.724 234.225,89.995 229,85.87 223.775,81.746 215,75.196 209.5,71.315 204,67.435 195,61.561 189.5,58.261 184,54.962 173.2,49.108 165.5,45.252 157.8,41.396 145.2,35.757 137.5,32.72 129.8,29.684 119.777,26.033 115.226,24.608 110.675,23.183 101.479,20.636 94.79,18.947 88.102,17.258 76.3,14.808 68.565,13.502 60.829,12.197 48.875,10.661 42,10.089 35.125,9.518 25.302,8.869 20.172,8.646 13.789,8.37 10.707,8.601 10.408,9.379 M 34,42.906 c 0,8.906 0,8.906 5.25,9.53 2.888,0.344 9.075,1.101 13.75,1.684 4.675,0.582 14.8,2.416 22.5,4.074 7.7,1.658 20.975,5.269 29.5,8.024 8.525,2.755 21.12,7.438 27.99,10.406 6.869,2.967 17.444,8.16 23.5,11.539 6.055,3.379 17.535,10.555 25.51,15.946 7.975,5.391 19.225,13.755 25,18.587 5.775,4.831 14.779,13.064 20.009,18.294 5.229,5.231 13.262,14.01 17.85,19.51 4.588,5.5 11.213,14.103 14.723,19.117 3.51,5.014 9.044,13.353 12.298,18.531 3.254,5.177 8.354,14.145 11.333,19.928 2.979,5.783 7.107,14.545 9.174,19.47 2.067,4.925 5.548,14.129 7.735,20.454 2.187,6.325 5.541,17.711 7.453,25.302 1.912,7.591 4.327,18.841 5.366,25 1.04,6.159 2.206,14.686 2.592,18.948 0.702,7.75 0.702,7.75 9.722,7.75 9.02,0 9.02,0 8.316,-8.75 -0.387,-4.812 -1.58,-13.925 -2.651,-20.25 -1.071,-6.325 -3.259,-16.9 -4.862,-23.5 -1.604,-6.6 -4.473,-16.725 -6.377,-22.5 -1.904,-5.775 -5.41,-15.45 -7.792,-21.5 -2.381,-6.05 -7.736,-17.75 -11.9,-26 -4.164,-8.25 -10.478,-19.641 -14.03,-25.314 -3.553,-5.673 -10.016,-15.123 -14.362,-21 C 267.25,160.309 260.216,151.45 255.966,146.5 251.716,141.55 242.447,131.875 235.369,125 228.291,118.125 218.225,109.081 213,104.903 207.775,100.725 199.675,94.595 195,91.282 190.325,87.968 181.775,82.418 176,78.947 170.225,75.475 158.75,69.389 150.5,65.421 142.25,61.453 129.425,55.948 122,53.187 114.575,50.426 103.775,46.814 98,45.16 92.225,43.506 83.225,41.244 78,40.132 72.775,39.021 62.2,37.189 54.5,36.061 46.8,34.933 39.038,34.008 37.25,34.005 34,34 34,34 34,42.906 M 10,161.348 c 0,33.348 0,33.348 10.376,33.983 5.707,0.349 15.022,1.535 20.7,2.636 5.678,1.101 14.621,3.411 19.874,5.135 5.252,1.724 14.05,5.287 19.55,7.919 5.5,2.632 13.6,7.143 18,10.024 4.4,2.881 11.15,7.815 15,10.964 3.85,3.15 10.457,9.349 14.682,13.777 4.226,4.428 10.104,11.35 13.063,15.382 2.959,4.033 6.99,10.032 8.957,13.332 1.968,3.3 5.237,9.32 7.265,13.379 2.028,4.058 5.424,12.608 7.545,19 2.121,6.391 4.561,15.086 5.421,19.321 0.86,4.235 2.083,13.348 2.718,20.25 1.155,12.55 1.155,12.55 34.644,12.55 33.49,0 33.49,0 32.794,-11.25 -0.382,-6.187 -1.35,-15.658 -2.15,-21.046 -0.8,-5.388 -2.369,-13.938 -3.485,-19 -1.117,-5.062 -4.072,-15.279 -6.566,-22.704 -2.495,-7.425 -7.629,-19.827 -11.41,-27.56 -3.781,-7.733 -10.164,-18.983 -14.184,-25 -4.02,-6.017 -9.824,-14.091 -12.896,-17.942 -3.073,-3.851 -9.118,-10.755 -13.434,-15.343 -4.316,-4.588 -12.149,-11.94 -17.406,-16.339 -5.257,-4.398 -12.933,-10.374 -17.058,-13.279 -4.125,-2.905 -12.357,-8.072 -18.293,-11.482 -5.936,-3.41 -15.854,-8.371 -22.039,-11.025 -6.185,-2.654 -16.281,-6.42 -22.435,-8.368 -6.154,-1.949 -15.393,-4.454 -20.532,-5.568 -5.138,-1.113 -14.922,-2.715 -21.742,-3.559 C 30.14,128.691 21.284,128 17.28,128 10,128 10,128 10,161.348 m 24,1.549 c 0,8.898 0,8.898 6.75,10.058 3.712,0.639 10.35,2.055 14.75,3.147 4.4,1.092 11.6,3.148 16,4.568 4.4,1.42 13.046,4.961 19.213,7.869 6.167,2.908 15.167,7.863 20,11.011 4.833,3.149 11.487,7.794 14.787,10.323 3.3,2.529 9.766,8.205 14.37,12.613 4.603,4.408 11.179,11.389 14.614,15.514 3.434,4.125 9.501,12.45 13.482,18.5 3.982,6.05 9.225,15.137 11.652,20.194 2.427,5.056 6.183,14.506 8.347,21 2.163,6.493 4.922,16.981 6.129,23.306 1.208,6.325 2.342,12.063 2.52,12.75 0.228,0.884 2.971,1.25 9.366,1.25 9.044,0 9.044,0 8.434,-4.25 -0.336,-2.337 -1.735,-9.409 -3.11,-15.714 -1.375,-6.305 -4.306,-16.655 -6.512,-23 -2.207,-6.345 -6.854,-17.255 -10.327,-24.245 -3.473,-6.989 -8.431,-15.989 -11.018,-20 -2.586,-4.01 -7.68,-11.116 -11.319,-15.791 -3.64,-4.675 -11.133,-13 -16.653,-18.5 -5.52,-5.5 -13.172,-12.538 -17.006,-15.641 -3.833,-3.103 -10.73,-8.151 -15.326,-11.219 -4.597,-3.068 -13.251,-8.082 -19.232,-11.141 -5.98,-3.059 -15.045,-7.177 -20.142,-9.15 -5.098,-1.974 -12.827,-4.657 -17.176,-5.963 -4.348,-1.306 -12.584,-3.277 -18.3,-4.38 C 42.576,154.903 37.021,154 35.949,154 34.163,154 34,154.744 34,162.897 m 10.919,104.936 c -3.62,0.945 -9.182,3.282 -12.36,5.193 -3.178,1.911 -7.73,5.633 -10.115,8.272 -2.385,2.639 -5.667,7.461 -7.293,10.716 -1.626,3.254 -3.527,9.106 -4.224,13.004 -0.967,5.414 -1.006,8.767 -0.164,14.205 0.669,4.322 2.504,9.957 4.672,14.342 2.471,5 5.373,8.894 9.425,12.645 3.221,2.982 8.282,6.563 11.248,7.959 2.966,1.396 7.817,3.114 10.782,3.818 3.277,0.778 8.373,1.069 13,0.743 4.185,-0.295 10.193,-1.511 13.35,-2.702 3.158,-1.19 8.108,-3.934 11,-6.097 2.893,-2.163 7.138,-6.401 9.433,-9.417 2.295,-3.017 5.151,-8.079 6.346,-11.25 1.196,-3.17 2.416,-9.189 2.711,-13.374 0.322,-4.569 0.033,-9.764 -0.724,-13 -0.693,-2.965 -2.37,-7.772 -3.726,-10.684 -1.357,-2.911 -4.947,-7.973 -7.979,-11.247 -3.85,-4.159 -7.666,-7.01 -12.656,-9.458 -3.93,-1.927 -9.569,-3.953 -12.531,-4.502 -2.963,-0.55 -7.238,-0.973 -9.5,-0.941 -2.263,0.031 -7.076,0.83 -10.695,1.775 m 2.502,25.551 c -2.793,1.301 -6.097,3.659 -7.341,5.241 -1.244,1.581 -2.896,4.392 -3.671,6.247 -0.775,1.855 -1.399,5.455 -1.387,8 0.012,2.545 0.841,6.432 1.843,8.637 1.002,2.204 3.426,5.417 5.387,7.139 1.961,1.722 5.856,3.891 8.655,4.821 3.296,1.095 6.236,1.443 8.341,0.989 1.789,-0.386 4.827,-1.506 6.752,-2.488 1.925,-0.983 4.686,-3.066 6.136,-4.628 1.45,-1.563 3.308,-4.192 4.129,-5.842 0.822,-1.65 1.809,-4.463 2.194,-6.252 0.453,-2.103 0.103,-5.049 -0.99,-8.341 -0.93,-2.799 -3.099,-6.694 -4.821,-8.655 -1.722,-1.961 -4.935,-4.385 -7.139,-5.387 -2.205,-1.002 -6.034,-1.827 -8.509,-1.833 -2.656,-0.007 -6.581,0.957 -9.579,2.352"
       stroke="none"
       fill="#fbfbfb"
       fill-rule="evenodd"
       id="path2" /></g></svg>
